<svg xmlns="http://www.w3.org/2000/svg" xmlns:xlink="http://www.w3.org/1999/xlink" width="320" zoomAndPan="magnify" viewBox="0 0 240 239.999995" height="320" preserveAspectRatio="xMidYMid meet" version="1.0"><defs><g/><clipPath id="6cfa93fc19"><path d="M 120 0 C 53.726562 0 0 53.726562 0 120 C 0 186.273438 53.726562 240 120 240 C 186.273438 240 240 186.273438 240 120 C 240 53.726562 186.273438 0 120 0 Z M 120 0 " clip-rule="nonzero"/></clipPath><clipPath id="daf72978b1"><path d="M 0 0 L 240 0 L 240 240 L 0 240 Z M 0 0 " clip-rule="nonzero"/></clipPath><clipPath id="ce4eeda24c"><path d="M 120 0 C 53.726562 0 0 53.726562 0 120 C 0 186.273438 53.726562 240 120 240 C 186.273438 240 240 186.273438 240 120 C 240 53.726562 186.273438 0 120 0 Z M 120 0 " clip-rule="nonzero"/></clipPath><clipPath id="b4df9be8d4"><rect x="0" width="240" y="0" height="240"/></clipPath></defs><g clip-path="url(#6cfa93fc19)"><g transform="matrix(1, 0, 0, 1, 0, 0)"><g clip-path="url(#b4df9be8d4)"><g clip-path="url(#daf72978b1)"><g clip-path="url(#ce4eeda24c)"><rect x="-52.8" width="345.6" fill="#f2f3eb" height="345.599992" y="-52.799999" fill-opacity="1"/></g></g></g></g></g><g fill="#254030" fill-opacity="1"><g transform="translate(58.712053, 171.317988)"><g><path d="M 37.78125 -97.6875 L 39.4375 -84.59375 C 40.664062 -85.582031 42.382812 -86.9375 44.59375 -88.65625 C 46.8125 -90.375 49.425781 -92.03125 52.4375 -93.625 C 55.445312 -95.226562 58.765625 -96.613281 62.390625 -97.78125 C 66.015625 -98.945312 69.789062 -99.53125 73.71875 -99.53125 C 83.675781 -99.53125 91.082031 -96.609375 95.9375 -90.765625 C 100.789062 -84.929688 103.21875 -76.796875 103.21875 -66.359375 L 103.21875 -14.75 L 117.03125 -10.140625 L 117.03125 0 L 72.796875 0 L 72.796875 -10.140625 L 84.78125 -14.75 L 84.78125 -64.515625 C 84.78125 -71.148438 83.488281 -76.03125 80.90625 -79.15625 C 78.332031 -82.289062 74.40625 -83.859375 69.125 -83.859375 C 66.539062 -83.859375 63.988281 -83.519531 61.46875 -82.84375 C 58.945312 -82.164062 56.609375 -81.273438 54.453125 -80.171875 C 52.304688 -79.066406 50.40625 -77.867188 48.75 -76.578125 C 47.09375 -75.285156 45.710938 -74.023438 44.609375 -72.796875 L 41.46875 -69.125 L 41.46875 -14.75 L 53.453125 -10.140625 L 53.453125 0 L 7.375 0 L 7.375 -10.140625 L 23.046875 -14.75 L 23.046875 -82.9375 L 7.375 -86.625 L 7.375 -96.765625 Z M 37.78125 -97.6875 "/></g></g></g></svg>