<svg xmlns="http://www.w3.org/2000/svg" xmlns:xlink="http://www.w3.org/1999/xlink" width="320" zoomAndPan="magnify" viewBox="0 0 240 239.999995" height="320" preserveAspectRatio="xMidYMid meet" version="1.0"><defs><g/></defs><g fill="#254030" fill-opacity="1"><g transform="translate(86.249997, 197.000013)"><g><path d="M 99 -132.75 C 106 -132.75 111.707031 -131.875 116.125 -130.125 C 120.539062 -128.375 124 -126 126.5 -123 C 129.164062 -119.832031 131.125 -115.75 132.375 -110.75 C 133.625 -105.75 134.25 -99 134.25 -90.5 L 134.25 -23.25 C 134.25 -16.25 135.457031 -11.5 137.875 -9 C 140.289062 -6.5 144.414062 -5.25 150.25 -5.25 L 150.25 0 C 147.082031 -0.164062 142.332031 -0.375 136 -0.625 C 129.664062 -0.875 123.414062 -1 117.25 -1 C 110.914062 -1 104.707031 -0.875 98.625 -0.625 C 92.539062 -0.375 87.914062 -0.164062 84.75 0 L 84.75 -5.25 C 89.75 -5.25 93.25 -6.5 95.25 -9 C 97.25 -11.5 98.25 -16.25 98.25 -23.25 L 98.25 -101 C 98.25 -105.164062 97.832031 -108.789062 97 -111.875 C 96.164062 -114.957031 94.664062 -117.375 92.5 -119.125 C 90.332031 -120.875 87.082031 -121.75 82.75 -121.75 C 78.25 -121.75 74.125 -120.5 70.375 -118 C 66.625 -115.5 63.625 -112.039062 61.375 -107.625 C 59.125 -103.207031 58 -98.25 58 -92.75 L 58 -23.25 C 58 -16.25 59.039062 -11.5 61.125 -9 C 63.207031 -6.5 66.664062 -5.25 71.5 -5.25 L 71.5 0 C 68.5 -0.164062 64.125 -0.375 58.375 -0.625 C 52.625 -0.875 46.664062 -1 40.5 -1 C 34.164062 -1 27.664062 -0.875 21 -0.625 C 14.332031 -0.375 9.332031 -0.164062 6 0 L 6 -5.25 C 11.832031 -5.25 15.957031 -6.5 18.375 -9 C 20.789062 -11.5 22 -16.25 22 -23.25 L 22 -102 C 22 -109.5 20.875 -115.039062 18.625 -118.625 C 16.375 -122.207031 12.164062 -124 6 -124 L 6 -129.25 C 11.332031 -128.75 16.5 -128.5 21.5 -128.5 C 28.5 -128.5 35.039062 -128.789062 41.125 -129.375 C 47.207031 -129.957031 52.832031 -130.832031 58 -132 L 58 -109.5 C 62.164062 -118 67.832031 -124 75 -127.5 C 82.164062 -131 90.164062 -132.75 99 -132.75 Z M 99 -132.75 "/></g></g></g></svg>