<svg xmlns="http://www.w3.org/2000/svg" xmlns:xlink="http://www.w3.org/1999/xlink" width="320" zoomAndPan="magnify" viewBox="0 0 240 239.999995" height="320" preserveAspectRatio="xMidYMid meet" version="1.0"><defs><g/><clipPath id="007f4633f6"><path d="M 120 0 C 53.726562 0 0 53.726562 0 120 C 0 186.273438 53.726562 240 120 240 C 186.273438 240 240 186.273438 240 120 C 240 53.726562 186.273438 0 120 0 Z M 120 0 " clip-rule="nonzero"/></clipPath><clipPath id="6486dfaa4e"><path d="M 0 0 L 240 0 L 240 240 L 0 240 Z M 0 0 " clip-rule="nonzero"/></clipPath><clipPath id="49daa89a17"><path d="M 120 0 C 53.726562 0 0 53.726562 0 120 C 0 186.273438 53.726562 240 120 240 C 186.273438 240 240 186.273438 240 120 C 240 53.726562 186.273438 0 120 0 Z M 120 0 " clip-rule="nonzero"/></clipPath><clipPath id="77864872cd"><rect x="0" width="240" y="0" height="240"/></clipPath><clipPath id="5fa7b46925"><rect x="0" width="126" y="0" height="216"/></clipPath></defs><g clip-path="url(#007f4633f6)"><g transform="matrix(1, 0, 0, 1, 0, 0)"><g clip-path="url(#77864872cd)"><g clip-path="url(#6486dfaa4e)"><g clip-path="url(#49daa89a17)"><rect x="-52.8" width="345.6" fill="#f2f3eb" height="345.599992" y="-52.799999" fill-opacity="1"/></g></g></g></g></g><g transform="matrix(1, 0, 0, 1, 61, 0)"><g clip-path="url(#5fa7b46925)"><g fill="#254030" fill-opacity="1"><g transform="translate(0.773038, 166.079975)"><g><path d="M 6.453125 -98.046875 L 44.609375 -99.53125 L 45.890625 -86.8125 C 47.242188 -87.914062 49.023438 -89.234375 51.234375 -90.765625 C 53.453125 -92.304688 57.539062 -94.394531 63.5 -97.03125 C 69.457031 -99.675781 74.894531 -101 79.8125 -101 C 88.65625 -101 95.441406 -98.082031 100.171875 -92.25 C 104.898438 -86.414062 107.265625 -78.398438 107.265625 -68.203125 L 107.265625 -19.359375 C 108.867188 -18.859375 111.144531 -18.054688 114.09375 -16.953125 C 117.039062 -15.847656 119.066406 -15.113281 120.171875 -14.75 L 120.171875 0 L 70.40625 0 L 70.40625 -14.75 L 80.171875 -19.359375 L 80.171875 -63.953125 C 80.171875 -68.253906 79.035156 -71.785156 76.765625 -74.546875 C 74.492188 -77.316406 71.453125 -78.703125 67.640625 -78.703125 C 64.203125 -78.703125 60.851562 -77.8125 57.59375 -76.03125 C 54.34375 -74.25 51.914062 -72.5 50.3125 -70.78125 L 47.921875 -68.203125 L 47.921875 -19.359375 L 57.5 -14.75 L 57.5 0 L 6.453125 0 L 6.453125 -14.75 L 20.640625 -19.359375 L 20.640625 -79.625 L 6.453125 -83.3125 Z M 6.453125 -98.046875 "/></g></g></g></g></g></svg>